<svg width="196" height="196" viewBox="0 0 196 196" fill="none" xmlns="http://www.w3.org/2000/svg">
<path d="M0 98C0 43.8761 43.8761 0 98 0V0C152.124 0 196 43.8761 196 98V98C196 152.124 152.124 196 98 196V196C43.8761 196 0 152.124 0 98V98Z" fill="#2E3494"/>
<path d="M84 65C84 57.268 90.268 51 98 51C105.732 51 112 57.268 112 65C112 72.732 105.732 79 98 79C90.268 79 84 72.732 84 65Z" fill="white"/>
<path d="M119 65C119 57.268 125.268 51 133 51C140.732 51 147 57.268 147 65C147 72.732 140.732 79 133 79C125.268 79 119 72.732 119 65Z" fill="white"/>
<path d="M84 98C84 90.268 90.268 84 98 84C105.732 84 112 90.268 112 98C112 105.732 105.732 112 98 112C90.268 112 84 105.732 84 98Z" fill="white"/>
<path d="M119 98C119 90.268 125.268 84 133 84C140.732 84 147 90.268 147 98C147 105.732 140.732 112 133 112C125.268 112 119 105.732 119 98Z" fill="white"/>
<path d="M49 131C49 123.268 55.268 117 63 117C70.732 117 77 123.268 77 131C77 138.732 70.732 145 63 145C55.268 145 49 138.732 49 131Z" fill="white"/>
<path d="M49 98C49 90.268 55.268 84 63 84C70.732 84 77 90.268 77 98C77 105.732 70.732 112 63 112C55.268 112 49 105.732 49 98Z" fill="white"/>
</svg>
