<svg width="68" height="69" viewBox="0 0 68 69" fill="none" xmlns="http://www.w3.org/2000/svg">
<path d="M0 34.8672C0 16.0895 15.2223 0.867188 34 0.867188V0.867188C52.7777 0.867188 68 16.0895 68 34.8672V34.8672C68 53.6449 52.7777 68.8672 34 68.8672V68.8672C15.2223 68.8672 0 53.6449 0 34.8672V34.8672Z" fill="white"/>
<path d="M29.1429 23.4187C29.1429 20.7361 31.3175 18.5615 34 18.5615C36.6825 18.5615 38.8571 20.7361 38.8571 23.4187C38.8571 26.1012 36.6825 28.2758 34 28.2758C31.3175 28.2758 29.1429 26.1012 29.1429 23.4187Z" fill="#2E3494"/>
<path d="M41.2857 23.4187C41.2857 20.7361 43.4603 18.5615 46.1429 18.5615C48.8254 18.5615 51 20.7361 51 23.4187C51 26.1012 48.8254 28.2758 46.1429 28.2758C43.4603 28.2758 41.2857 26.1012 41.2857 23.4187Z" fill="#2E3494"/>
<path d="M29.1429 34.8676C29.1429 32.1851 31.3175 30.0105 34 30.0105C36.6825 30.0105 38.8571 32.1851 38.8571 34.8676C38.8571 37.5502 36.6825 39.7248 34 39.7248C31.3175 39.7248 29.1429 37.5502 29.1429 34.8676Z" fill="#2E3494"/>
<path d="M41.2857 34.8676C41.2857 32.1851 43.4603 30.0105 46.1429 30.0105C48.8254 30.0105 51 32.1851 51 34.8676C51 37.5502 48.8254 39.7248 46.1429 39.7248C43.4603 39.7248 41.2857 37.5502 41.2857 34.8676Z" fill="#2E3494"/>
<path d="M17 46.3166C17 43.6341 19.1746 41.4595 21.8571 41.4595C24.5397 41.4595 26.7143 43.6341 26.7143 46.3166C26.7143 48.9991 24.5397 51.1738 21.8571 51.1738C19.1746 51.1738 17 48.9991 17 46.3166Z" fill="#2E3494"/>
<path d="M17 34.8676C17 32.1851 19.1746 30.0105 21.8571 30.0105C24.5397 30.0105 26.7143 32.1851 26.7143 34.8676C26.7143 37.5502 24.5397 39.7248 21.8571 39.7248C19.1746 39.7248 17 37.5502 17 34.8676Z" fill="#2E3494"/>
</svg>
